<?xml version="1.0" standalone="no"?>
<!DOCTYPE svg PUBLIC "-//W3C//DTD SVG 20010904//EN"
 "http://www.w3.org/TR/2001/REC-SVG-20010904/DTD/svg10.dtd">
<svg version="1.0" xmlns="http://www.w3.org/2000/svg"
 width="768.000000pt" height="925.000000pt" viewBox="0 0 768.000000 925.000000"
 preserveAspectRatio="xMidYMid meet">

<g transform="translate(0.000000,925.000000) scale(0.100000,-0.100000)"
fill="#000000" stroke="none">
<path d="M4565 9230 c-356 -40 -662 -133 -970 -294 -160 -84 -2412 -1526
-2543 -1629 -282 -221 -522 -517 -682 -841 -156 -317 -239 -648 -256 -1026
-18 -407 78 -865 257 -1223 l39 -77 -58 -98 c-293 -484 -408 -1082 -322 -1666
104 -702 489 -1341 1074 -1784 428 -324 943 -523 1486 -572 164 -16 482 -8
630 15 322 49 628 150 885 292 94 52 2150 1356 2372 1504 442 296 784 747 952
1254 147 443 171 942 65 1395 -43 184 -151 480 -215 589 l-20 33 47 72 c77
119 181 343 234 503 88 269 132 543 131 833 -1 561 -163 1056 -498 1525 -456
639 -1135 1056 -1916 1176 -150 23 -553 34 -692 19z m548 -1045 c366 -48 694
-204 961 -456 261 -247 429 -547 503 -899 14 -67 18 -130 18 -300 -1 -189 -4
-226 -23 -305 -22 -88 -81 -287 -87 -293 -2 -2 -59 36 -127 83 -266 188 -519
314 -820 411 l-88 28 0 96 c0 162 -44 274 -146 375 -98 97 -214 145 -354 145
-83 0 -169 -19 -230 -50 -22 -11 -453 -284 -957 -607 -505 -322 -992 -633
-1083 -691 -234 -148 -298 -216 -335 -357 -75 -288 144 -579 454 -601 88 -7
186 12 263 51 26 13 236 145 466 291 229 147 458 289 507 315 529 280 1192
240 1703 -102 307 -205 559 -530 672 -867 54 -161 71 -261 77 -452 8 -263 -24
-448 -117 -660 -97 -225 -279 -455 -472 -598 -45 -33 -1673 -1073 -2208 -1410
-204 -129 -391 -209 -570 -246 -689 -140 -1379 146 -1776 735 -249 370 -332
820 -233 1254 25 107 59 227 68 237 3 4 60 -31 126 -77 148 -104 247 -164 392
-237 127 -64 331 -146 443 -178 l75 -22 1 -111 c1 -169 45 -270 164 -381 150
-139 359 -173 546 -91 55 25 2154 1361 2241 1427 168 128 214 379 107 579
-103 193 -352 300 -567 244 -87 -23 -126 -45 -590 -342 -236 -151 -466 -293
-511 -315 -243 -122 -597 -186 -876 -159 -239 24 -433 81 -641 187 -325 167
-597 448 -753 775 -110 232 -146 381 -153 639 -5 159 -2 202 16 309 69 402
293 757 621 980 228 156 2277 1452 2360 1493 163 81 354 136 565 161 78 10
265 6 368 -8z"/>
</g>
</svg>
